<?xml version="1.0" encoding="UTF-8"?>
<svg viewBox="0 0 256 256" xmlns="http://www.w3.org/2000/svg" xmlns:xlink="http://www.w3.org/1999/xlink">
 <defs>
  <filter id="k">
   <feGaussianBlur in="SourceGraphic" result="result0" stdDeviation=".5"/>
   <feTurbulence baseFrequency=".095" result="result1" seed="488"/>
   <feComposite in="result0" in2="result1" operator="in" result="result2"/>
   <feComposite in="result4" in2="result2" k1="3" k3="1" operator="arithmetic" result="result91"/>
   <feBlend in2="result91" mode="multiply" result="fbSourceGraphic"/>
   <feColorMatrix in="fbSourceGraphic" result="fbSourceGraphicAlpha" values="0 0 0 0 0 0 0 1 0 0 0 0 1 0 0 0 0 0 5 0"/>
   <feGaussianBlur in="fbSourceGraphicAlpha" result="result0" stdDeviation="3"/>
   <feOffset dx="2" dy="2" in="result0" result="result3"/>
   <feSpecularLighting lighting-color="#6fecfd" in="result0" result="result1" specularConstant="1.1" specularExponent="30" surfaceScale="2">
    <fePointLight x="-5000" y="-10000" z="20000"/>
   </feSpecularLighting>
   <feComposite in="result1" in2="fbSourceGraphicAlpha" k2="-1" operator="in" result="result2"/>
   <feComposite in="fbSourceGraphic" in2="result2" k2="3" k3="1" operator="arithmetic" result="result4"/>
   <feBlend in2="result4" mode="multiply"/>
  </filter>
  <linearGradient id="b">
   <stop stop-color="#ffbe64" offset="0"/>
   <stop stop-color="#e38d16" offset="1"/>
  </linearGradient>
  <linearGradient id="i" x2="0" y1="122.54" y2="102.55" gradientTransform="matrix(5.6201 -.31607 .31607 5.6201 -37.494 -576.54)" gradientUnits="userSpaceOnUse">
   <stop offset="0"/>
   <stop stop-opacity="0" offset="1"/>
  </linearGradient>
  <linearGradient id="h" x1="7.7782" x2="24.822" gradientTransform="matrix(5.6201 -.31607 .31607 5.6201 -37.494 -576.54)" gradientUnits="userSpaceOnUse">
   <stop stop-color="#fff" stop-opacity="0" offset="0"/>
   <stop stop-color="#fff" stop-opacity=".3922" offset=".1108"/>
   <stop stop-color="#fff" stop-opacity=".0784" offset=".4227"/>
   <stop stop-color="#fff" stop-opacity="0" offset="1"/>
  </linearGradient>
  <linearGradient id="g" x1="37.808" x2="40.128" y1="95.031" y2="94.919" gradientTransform="matrix(5.6201 -.31607 .31607 5.6201 -37.494 -576.54)" gradientUnits="userSpaceOnUse">
   <stop stop-color="#c88109" stop-opacity="0" offset="0"/>
   <stop stop-color="#c88109" offset="1"/>
  </linearGradient>
  <linearGradient id="e" x1="14.604" x2="16.283" y1="112.71" y2="124.2" gradientTransform="matrix(5.6201 -.31607 .31607 5.6201 -37.494 -576.54)" gradientUnits="userSpaceOnUse">
   <stop stop-color="#646464" offset="0"/>
   <stop stop-color="#646464" stop-opacity="0" offset="1"/>
  </linearGradient>
  <linearGradient id="d" x2="0" y1="117.39" y2="124.2" gradientTransform="matrix(5.6201 -.31607 .31607 5.6201 -37.494 -576.54)" gradientUnits="userSpaceOnUse">
   <stop stop-color="#646464" offset="0"/>
   <stop stop-color="#f0f0f0" offset="1"/>
  </linearGradient>
  <linearGradient id="c" x1="23.953" x2="32.527" y1="94.943" y2="113.95" gradientTransform="matrix(5.6201 -.31607 .31607 5.6201 -36.23 -554.06)" gradientUnits="userSpaceOnUse">
   <stop stop-color="#ffdc64" offset="0"/>
   <stop stop-color="#c88109" offset="1"/>
  </linearGradient>
  <linearGradient id="a" x1="18.416" x2="19.362" y1="119.92" y2="101.24" gradientUnits="userSpaceOnUse">
   <stop stop-color="#141414" offset="0"/>
   <stop stop-color="#505050" offset="1"/>
  </linearGradient>
  <linearGradient id="f" x1="23.953" x2="32.527" y1="94.943" y2="113.95" gradientTransform="matrix(5.6201 -.31607 .31607 5.6201 -37.494 -576.54)" gradientUnits="userSpaceOnUse" xlink:href="#b"/>
  <linearGradient id="j" x1="23.953" x2="32.527" y1="94.943" y2="113.95" gradientTransform="matrix(5.6201 -.31607 .31607 5.6201 -34.666 -577.95)" gradientUnits="userSpaceOnUse" xlink:href="#b"/>
 </defs>
 <g transform="translate(0,128)">
  <path d="m44.822-93.105 148.09-8.3262c6.227-0.35035 11.522 4.3788 11.872 10.606l22.103 192.48c0.35035 6.227-4.381 11.522-10.608 11.872l-159.33 8.9609c-6.2269 0.35225-11.522-4.381-11.872-10.608l-10.86-193.11c-0.35023-6.2271 4.381-11.522 10.608-11.872z" fill="url(#c)"/>
  <path d="m46.292-92.34c-6.5586 0.36861-11.465 6.0304-11.095 12.604l10.687 190.03c0.36972 6.574 5.8801 11.65 12.439 11.281l156.48-8.8007c6.5587-0.36629 11.465-6.0304 11.095-12.604l-21.752-189.41-0.01-0.17563c-0.45948-6.4868-5.9295-11.471-12.429-11.105l-145.42 8.1784zm0.0889 1.5806 145.42-8.1784c5.6666-0.31875 10.449 4.102 10.769 9.7892l21.752 189.41c0.31993 5.6871-3.9471 10.441-9.6135 10.759l-156.48 8.8007c-5.6664 0.31982-10.439-3.9265-10.759-9.6135l-10.687-190.03c-0.31986-5.6871 3.9372-10.616 9.6036-10.935z" fill="#fff" fill-opacity=".3137"/>
  <path d="m44.822-93.105 27.397-1.5374 16.621 215.33-31.893 1.7937c-6.2269 0.35278-11.522-4.381-11.872-10.608l-10.86-193.11c-0.35023-6.2271 4.381-11.522 10.608-11.872z"/>
  <path d="m59.132 91.837 160.44-9.0223-1.9115 26.515-157.05 8.8353c-7.5148 0.42193-11.403 0.78222-12.291-10.585l-0.21636-3.8474c-0.35023-6.227 4.5678-11.533 11.027-11.896z" fill="url(#d)"/>
  <path d="m59.132 91.837 160.44-9.0223-1.9115 26.515-157.05 8.8353c-7.5148 0.42193-11.403 0.78222-12.291-10.585l-0.21636-3.8474c-0.35023-6.227 4.5678-11.533 11.027-11.896z" fill="url(#e)"/>
  <path d="m46.386-117 148.09-8.3262c6.227-0.35035 11.522 4.3788 11.872 10.606l22.103 192.48c0.35035 6.227-4.381 11.522-10.608 11.872l-159.33 8.9608c-6.2269 0.35278-11.522-4.381-11.872-10.608l-10.86-193.11c-0.35023-6.2271 4.381-11.522 10.608-11.872z" fill="url(#j)"/>
  <path d="m43.558-115.59 148.09-8.3262c6.227-0.35035 11.522 4.3788 11.872 10.606l22.103 192.48c0.35035 6.227-4.381 11.522-10.608 11.872l-159.33 8.9608c-6.2269 0.35278-11.522-4.381-11.872-10.608l-10.86-193.11c-0.35023-6.2271 4.381-11.522 10.608-11.872z" fill="url(#f)" filter="url(#k)" opacity=".8462"/>
  <path d="m45.028-114.82c-6.5586 0.36861-11.465 6.0304-11.095 12.604l10.687 190.03c0.36972 6.574 5.8801 11.65 12.439 11.281l156.48-8.8007c6.5588-0.36629 11.465-6.0304 11.095-12.604l-21.752-189.41-0.01-0.17564c-0.45948-6.4868-5.9295-11.471-12.429-11.105l-145.42 8.1784zm0.0889 1.5806 145.42-8.1784c5.6666-0.31869 10.449 4.1021 10.769 9.7892l21.752 189.41c0.31993 5.6871-3.9471 10.441-9.6135 10.759l-156.48 8.8007c-5.6664 0.31983-10.439-3.9265-10.759-9.6135l-10.687-190.03c-0.31986-5.6871 3.9372-10.616 9.6036-10.935z" fill="#fff" fill-opacity=".3137"/>
  <path d="m43.558-115.59 148.09-8.3262c6.227-0.35035 11.522 4.3788 11.872 10.606l22.103 192.48c0.35035 6.227-4.381 11.522-10.608 11.872l-159.33 8.9608c-6.2269 0.35278-11.522-4.381-11.872-10.608l-10.86-193.11c-0.35034-6.227 4.381-11.522 10.608-11.872z" fill="url(#g)"/>
  <path d="m43.558-115.59 27.397-1.5374 16.621 215.33-31.893 1.7937c-5.9845 0.33819-7.4622 3.0034-7.099 9.4618l-3.6329 0.20746-12.001-213.39c-0.35023-6.2271 4.381-11.522 10.608-11.872l1.3e-4 2e-3 6e-6 1.2e-4z"/>
  <path d="m43.558-115.59 27.397-1.5374 16.621 215.33-31.893 1.7937c-5.9845 0.33819-7.4622 3.0034-7.099 9.4618l-3.6329 0.20746-12.001-213.39c-0.35023-6.2271 4.381-11.522 10.608-11.872l1.3e-4 2e-3 7e-6 1.1e-4z" fill="url(#h)"/>
  <path d="m43.558-115.59 27.397-1.5374 16.621 215.33-31.893 1.7937c-5.9845 0.33819-7.4622 3.0034-7.099 9.4618l-3.6329 0.20762-12.001-213.39c-0.35023-6.2271 4.381-11.522 10.608-11.872l1.3e-4 2e-3 6e-6 1.2e-4z" fill="url(#i)"/>
  <g transform="matrix(5.7903 -.33784 .2931 5.0235 .18428 -562.24)" fill="#ffdc64" font-family="Times New Roman" font-size="20.492">
   <path d="m23.2205,106.20375-1.17066,3.99226c-.43359,1.49418-.69707,2.44138-.79045,2.8416s-.14009.72041-.14008.96055c-1.2e-005,.21345.07003.39355.21012.5403 .14674.14675.32684.22013.54031.22013 .48693,0 1.07059-.24347 1.75099-.73042 .68704-.48694 1.27404-1.27738 1.761-2.37134s.7304-2.23459.73041-3.42193c-1.7e-005-1.14064-.27684-2.19457-.83047-3.16179s-1.3241-1.70762-2.33132-2.22126c-1.00058-.52028-2.10787-.78042-3.32188-.78044-1.54088,2e-005-2.97169.41025-4.29243,1.2307-1.32075.8138-2.36801,1.9878-3.14178,3.52199s-1.15065,3.12844-1.15065,4.7827c-2e-006,1.53421.33686,2.92833 1.01057,4.18237 .68038,1.25404 1.63425,2.20124 2.86162,2.84161 1.22735.64703 2.5481.97054 3.96224.97055 1.75431-1e-005 3.33854-.47027 4.75269-1.4108 1.42079-.94054 2.51807-2.31465 3.29186-4.12233h.58033c-.60036,1.8277-1.69097,3.30853-3.27185,4.44251s-3.38192,1.70096-5.40306,1.70096c-1.58757,0-3.06174-.37688-4.4225-1.13064s-2.41804-1.81102-3.17179-3.1918c-.75376-1.37411-1.13064-2.8883-1.13064-4.54257-1e-006-1.76099.41357-3.40192 1.2407-4.92279 .82713-1.52752 1.98445-2.71819 3.47196-3.57202 1.49417-.86047 3.0784-1.29071 4.75269-1.29073 1.38077,2e-005 2.6248.28685 3.73211.86049s1.96109,1.4008 2.54144,2.50141c.58031,1.09397.87047,2.25796.87049,3.49198-1.8e-005,1.2207-.27351,2.43138-.82046,3.63205-.54032,1.19401-1.23071,2.06451-2.07117,2.61148s-1.71765.82046-2.63149.82046c-.50696,0-.89051-.12006-1.15065-.3602-.25349-.24013-.38023-.57699-.38022-1.01057-1.1e-005-.37354.06002-.86382.1801-1.47083-.98723,1.19401-1.77768,1.96778-2.37134,2.32131s-1.11731.5303-1.57089.5303c-.47361,0-.89385-.21012-1.26071-.63036-.36688-.4269-.55032-.99389-.55031-1.70096-5e-006-.96721.3135-2.05115.94053-3.25184s1.47082-2.17789 2.51142-2.93166c.76709-.55363 1.45415-.83046 2.06117-.83047 .44691,1e-005 .81712.11675 1.11063.3502 .30016.22681.50361.57033.61035,1.03059l.33019-1.10063 1.57089-.22012m-3.51199.41023c-.50029,1e-005-1.00725.26349-1.52086.79045-.75377.77378-1.39747,1.8177-1.93109,3.13177-.39356.96055-.59034,1.73432-.59033,2.32131-7e-006,.42024.11673.76377.3502,1.03058 .24013.26015.50695.39023.80045.39022 .38688,1e-005 .79377-.14674 1.22069-.44024s.87382-.74376 1.34076-1.35077 .80711-1.22735 1.02058-1.84104c.37353-1.06059.56031-1.92441.56032-2.59146-1.2e-005-.44025-.12342-.79044-.37021-1.0506-.24015-.26014-.53365-.39021-.8805-.39022"/>
  </g>
  <g transform="matrix(5.7903 -.33784 .2931 5.0235 .18428 -562.24)" fill="#c88109" font-family="Times New Roman" font-size="20.492">
   <path d="m23.2205,105.63438-1.17066,3.99226c-.43359,1.49418-.69707,2.44138-.79045,2.84161s-.14009.72041-.14008.96054c-1.2e-005,.21346.07003.39356.21012.54031 .14674.14675.32684.22012.54031.22012 .48693,0 1.07059-.24347 1.75099-.73041 .68704-.48694 1.27404-1.27739 1.761-2.37134s.7304-2.23459.73041-3.42194c-1.7e-005-1.14064-.27684-2.19456-.83047-3.16179s-1.3241-1.70762-2.33132-2.22125c-1.00058-.52028-2.10787-.78043-3.32188-.78044-1.54088,1e-005-2.97169.41024-4.29243,1.23069-1.32075.81381-2.36801,1.9878-3.14178,3.52199s-1.15065,3.12844-1.15065,4.78271c-2e-006,1.5342.33686,2.92832 1.01057,4.18236 .68038,1.25404 1.63425,2.20125 2.86162,2.84161 1.22735.64703 2.5481.97054 3.96224.97055 1.75431-1e-005 3.33854-.47027 4.75269-1.4108 1.42079-.94053 2.51807-2.31464 3.29186-4.12233h.58033c-.60036,1.8277-1.69097,3.30854-3.27185,4.44251s-3.38192,1.70096-5.40306,1.70096c-1.58757,0-3.06174-.37688-4.4225-1.13064s-2.41804-1.81102-3.17179-3.1918c-.75376-1.37411-1.13064-2.8883-1.13064-4.54257-1e-006-1.76099.41357-3.40192 1.2407-4.92278 .82713-1.52752 1.98445-2.7182 3.47196-3.57202 1.49417-.86048 3.0784-1.29072 4.75269-1.29073 1.38077,1e-005 2.6248.28684 3.73211.86048s1.96109,1.40081 2.54144,2.50142c.58031,1.09396.87047,2.25795.87049,3.49197-1.8e-005,1.2207-.27351,2.43138-.82046,3.63206-.54032,1.19401-1.23071,2.0645-2.07117,2.61147s-1.71765.82047-2.63149.82047c-.50696,0-.89051-.12007-1.15065-.36021-.25349-.24013-.38023-.57699-.38022-1.01057-1.1e-005-.37354.06002-.86382.1801-1.47083-.98723,1.19401-1.77768,1.96778-2.37134,2.32131s-1.11731.5303-1.57089.5303c-.47361,0-.89385-.21012-1.26071-.63035-.36688-.42691-.55032-.9939-.55031-1.70097-5e-006-.96721.3135-2.05115.94053-3.25183s1.47082-2.17789 2.51142-2.93166c.76709-.55364 1.45415-.83046 2.06117-.83047 .44691,1e-005 .81712.11674 1.11063.3502 .30016.2268.50361.57033.61035,1.03058l.33019-1.10062 1.57089-.22013m-3.51199.41023c-.50029,1e-005-1.00725.2635-1.52086.79045-.75377.77378-1.39747,1.8177-1.93109,3.13177-.39356.96055-.59034,1.73432-.59033,2.32131-7e-006,.42025.11673.76377.3502,1.03059 .24013.26015.50695.39022.80045.39022 .38688,0 .79377-.14675 1.22069-.44025s.87382-.74375 1.34076-1.35076 .80711-1.22736 1.02058-1.84105c.37353-1.06059.56031-1.92441.56032-2.59146-1.2e-005-.44024-.12342-.79044-.37021-1.0506-.24015-.26013-.53365-.39021-.8805-.39022"/>
  </g>
  <g transform="matrix(5.7903 -.33784 .2931 5.0235 .18428 -562.24)" fill="url(#a)" font-family="Times New Roman" font-size="20.492">
   <path d="m23.2205,105.91907-1.17066,3.99226c-.43359,1.49418-.69707,2.44138-.79045,2.84161s-.14009.72041-.14008.96054c-1.2e-005,.21346.07003.39356.21012.54031 .14674.14675.32684.22012.54031.22012 .48693,0 1.07059-.24347 1.75099-.73041 .68704-.48694 1.27404-1.27739 1.761-2.37134s.7304-2.23459.73041-3.42194c-1.7e-005-1.14063-.27684-2.19456-.83047-3.16179s-1.3241-1.70762-2.33132-2.22125c-1.00058-.52028-2.10787-.78043-3.32188-.78044-1.54088,1e-005-2.97169.41024-4.29243,1.23069-1.32075.81381-2.36801,1.9878-3.14178,3.52199s-1.15065,3.12845-1.15065,4.78271c-2e-006,1.5342.33686,2.92832 1.01057,4.18236 .68038,1.25404 1.63425,2.20125 2.86162,2.84161 1.22735.64703 2.5481.97055 3.96224.97055 1.75431,0 3.33854-.47027 4.75269-1.4108 1.42079-.94053 2.51807-2.31464 3.29186-4.12233h.58033c-.60036,1.8277-1.69097,3.30854-3.27185,4.44251s-3.38192,1.70096-5.40306,1.70096c-1.58757,0-3.06174-.37688-4.4225-1.13063s-2.41804-1.81103-3.17179-3.19181c-.75376-1.37411-1.13064-2.8883-1.13064-4.54257-1e-006-1.76099.41357-3.40191 1.2407-4.92278 .82713-1.52752 1.98445-2.71819 3.47196-3.57202 1.49417-.86048 3.0784-1.29072 4.75269-1.29073 1.38077,1e-005 2.6248.28684 3.73211.86048s1.96109,1.40081 2.54144,2.50142c.58031,1.09396.87047,2.25795.87049,3.49197-1.8e-005,1.2207-.27351,2.43138-.82046,3.63206-.54032,1.19401-1.23071,2.0645-2.07117,2.61147s-1.71765.82047-2.63149.82047c-.50696,0-.89051-.12007-1.15065-.36021-.25349-.24013-.38023-.57699-.38022-1.01057-1.1e-005-.37354.06002-.86382.1801-1.47083-.98723,1.19401-1.77768,1.96778-2.37134,2.32131s-1.11731.5303-1.57089.5303c-.47361,0-.89385-.21011-1.26071-.63035-.36688-.42691-.55032-.9939-.55031-1.70096-5e-006-.96721.3135-2.05116.94053-3.25184s1.47082-2.17789 2.51142-2.93166c.76709-.55364 1.45415-.83046 2.06117-.83047 .44691,1e-005 .81712.11674 1.11063.3502 .30016.2268.50361.57033.61035,1.03058l.33019-1.10062 1.57089-.22013m-3.51199.41023c-.50029,1e-005-1.00725.2635-1.52086.79045-.75377.77378-1.39747,1.8177-1.93109,3.13177-.39356.96055-.59034,1.73432-.59033,2.32132-7e-006,.42024.11673.76376.3502,1.03058 .24013.26015.50695.39022.80045.39022 .38688,0 .79377-.14675 1.22069-.44025s.87382-.74375 1.34076-1.35076 .80711-1.22736 1.02058-1.84104c.37353-1.0606.56031-1.92442.56032-2.59147-1.2e-005-.44024-.12342-.79044-.37021-1.05059-.24015-.26014-.53365-.39022-.8805-.39023" fill="url(#a)"/>
  </g>
 </g>
</svg>
